PathFileType	4	(X/Y/Z)	Walk2.trc
DataRate	CameraRate	NumFrames	NumMarkers	Units	OrigDataRate	OrigDataStartFrame	OrigNumFrames
200.000000	200.000000	6	61	mm	200.000000	548	591
Frame#	Times		LFHD		RFHD		CLAV		STRN		LASI		RASI		RACR1		RUA1		RElbow		RFA1		RWRR		RWRU		RCAR		LACR1		LUA1		LElbow		LFA1		LWRR		RTH3		RTH2		RTB1		RTB3		RTB2		RTB4		LTH1		LTH3		LLFC		LMFC		LTB1		LTB2		LMT1		LWRU		LCAR		LTB3		RMFC		LTB4		RMMAL		LTH4		LTH2		RToe		RElbowM		RMT1		RLFC		RTH4		RTH1		LBHD		RCAL		RLMAL		LToe		RBack		RMT5		LMT5		RPSI		LLMAL		C7		LPSI		LMMAL		T10		LCAL		RBHD		LElbowM
			X1	Y1	Z1	X2	Y2	Z2	X3	Y3	Z3	X4	Y4	Z4	X5	Y5	Z5	X6	Y6	Z6	X7	Y7	Z7	X8	Y8	Z8	X9	Y9	Z9	X10	Y10	Z10	X11	Y11	Z11	X12	Y12	Z12	X13	Y13	Z13	X14	Y14	Z14	X15	Y15	Z15	X16	Y16	Z16	X17	Y17	Z17	X18	Y18	Z18	X19	Y19	Z19	X20	Y20	Z20	X21	Y21	Z21	X22	Y22	Z22	X23	Y23	Z23	X24	Y24	Z24	X25	Y25	Z25	X26	Y26	Z26	X27	Y27	Z27	X28	Y28	Z28	X29	Y29	Z29	X30	Y30	Z30	X31	Y31	Z31	X32	Y32	Z32	X33	Y33	Z33	X34	Y34	Z34	X35	Y35	Z35	X36	Y36	Z36	X37	Y37	Z37	X38	Y38	Z38	X39	Y39	Z39	X40	Y40	Z40	X41	Y41	Z41	X42	Y42	Z42	X43	Y43	Z43	X44	Y44	Z44	X45	Y45	Z45	X46	Y46	Z46	X47	Y47	Z47	X48	Y48	Z48	X49	Y49	Z49	X50	Y50	Z50	X51	Y51	Z51	X52	Y52	Z52	X53	Y53	Z53	X54	Y54	Z54	X55	Y55	Z55	X56	Y56	Z56	X57	Y57	Z57	X58	Y58	Z58	X59	Y59	Z59	X60	Y60	Z60	X61	Y61	Z61

548	2.74	1235.6	1672.8	-109.3	1230.8	1681	-10.449	1240.8	1419.2	-37.744	1313.5	1262.3	-32.342	1198.4	995.38	-208.12	1213.3	1007.1	164.47	1120.4	1504.7	127.51	1089.1	1345.7	253.28	1090.3	1199.3	310.14	1114.2	1048.7	336.78	1134.8	926.11	277.26	1122.2	935.45	357.93	1151.9	847.56	331.4	1126.3	1471.7	-224.26	1117.7	1294.3	-309.96	1142.3	1131.9	-359.68	1203.6	1006	-364.89	1286.3	906.92	-299.4	1260.4	646.92	196.42	1273.3	751.17	189.71	1307.4	410.22	122.7	1237.2	253.58	107.48	1249.5	337.31	172.3	1272.3	331.62	115.5	1133.8	762.03	-215.16	1135.7	594.29	-180.96	1115.7	509.34	-173.56	1135.1	506.9	-17.223	1172.5	382.58	-106.38	1124.9	294.81	-137.95	1179.8	37.676	-49.578	1252.6	876.16	-358.21	1326.4	828.85	-329.8	1132.7	220.41	-65.06	1284.2	537.03	36.56	1156.4	302.42	-84.452	1160.2	137.1	48.17	1132.4	679.19	-197.76	1190.1	683.43	-183.62	1300.3	53.168	128.6	1034.6	1125.1	218.79	1263.9	50.366	89.268	1271.4	540.55	191.19	1222.2	723.72	202.52	1181.7	800.79	206.09	1088.2	1589	-122.39	1057.3	124.24	77.5	1117.6	136.41	129.49	1231.4	26.982	-90.308	980.1	1381	70.215	1218.7	46.571	167.95	1109.8	25.121	-124.65	952.5	1036.3	16.567	1020.2	76.366	-56.914	1046.8	1493.7	-47.167	958.03	1048.4	-68.873	1051.8	85.832	27.348	991.08	1177.5	-27.85	970.67	51.24	3.2636	1097.4	1607.1	27.235	1089.3	1063	-267.36
549	2.745	1241.6	1672.7	-109.06	1236.8	1680.7	-10.206	1246.6	1419	-37.826	1319.3	1262	-32.657	1203.7	995.39	-208.23	1219.8	1006.9	163.38	1126.3	1504.4	127.52	1094.7	1345.4	253.17	1095.5	1198.9	309.86	1118.8	1048.2	336.35	1139	925.6	276.77	1126.3	934.87	357.41	1155.7	846.9	330.78	1132.2	1471.8	-224.27	1124.7	1294.5	-310.28	1150.7	1132.4	-360.23	1213.3	1007.1	-365.29	1296.7	908.85	-299.47	1268.2	647.82	195.6	1280.4	752.17	189.17	1319.3	411.64	121.96	1253.8	252.95	107.05	1263.3	337.21	171.59	1286.5	332	114.92	1137.4	761.79	-215.42	1138.5	594.05	-181.09	1118	509.16	-173.57	1137.6	506.64	-17.301	1174.2	382.05	-106.4	1126.2	294.52	-137.94	1179.9	37.672	-49.638	1263.5	877.86	-358.53	1337.6	831.21	-329.71	1133.6	220.08	-65.037	1292.7	538.03	35.511	1157.7	301.97	-84.453	1180.4	134.14	47.774	1135.7	679.08	-198.04	1193.4	682.82	-183.8	1322.6	54.301	128.74	1039.5	1125	218.54	1286.4	50.447	89.293	1280	541.27	190.11	1229.4	724.35	202.04	1188.5	801.12	205.9	1094.2	1589	-122.29	1077.9	118.39	76.703	1137.6	132.27	128.96	1231.5	26.834	-90.379	985.96	1380.9	70.091	1240.6	44.944	167.79	1109.7	25.106	-124.66	958.24	1036.4	16.819	1020.4	76.567	-56.82	1052.7	1493.5	-47.194	963.49	1048.5	-68.64	1052	85.92	27.465	996.81	1177.4	-27.823	970.83	51.571	3.3888	1103.4	1606.9	27.36	1097.9	1062.9	-268.26
550	2.75	1247.6	1672.5	-108.83	1242.8	1680.4	-9.9683	1252.5	1418.7	-37.897	1325	1261.7	-32.963	1209	995.37	-208.32	1226.4	1006.7	162.27	1132.4	1504.1	127.55	1100.3	1345	253.07	1100.6	1198.5	309.59	1123.4	1047.7	335.93	1143.2	925.05	276.28	1130.5	934.26	356.89	1159.6	846.2	330.18	1138.1	1471.9	-224.26	1131.7	1294.6	-310.58	1159.2	1132.9	-360.74	1222.9	1008.3	-365.65	1306.9	910.76	-299.51	1275.8	648.62	194.79	1287.3	753.05	188.64	1331	413.04	121.25	1270.3	252.42	106.62	1277	337.14	170.89	1300.6	332.43	114.34	1141	761.53	-215.69	1141.4	593.78	-181.22	1120.4	508.96	-173.58	1140.2	506.35	-17.382	1175.9	381.49	-106.42	1127.5	294.23	-137.93	1179.9	37.658	-49.693	1274.4	879.53	-358.8	1348.8	833.55	-329.61	1134.5	219.75	-65.014	1301	538.89	34.452	1159	301.51	-84.456	1200.7	131.39	47.367	1139.1	678.93	-198.34	1196.8	682.2	-183.98	1344.8	55.645	128.91	1044.4	1124.8	218.3	1308.9	50.792	89.324	1288.5	541.87	189.03	1236.6	724.87	201.58	1195.1	801.37	205.73	1100.2	1588.9	-122.2	1098.6	112.74	75.879	1157.6	128.31	128.42	1231.7	26.683	-90.451	991.84	1380.8	70	1263	45.407	168.05	1109.7	25.096	-124.66	963.97	1036.4	17.085	1020.7	76.782	-56.723	1058.7	1493.4	-47.2	968.95	1048.5	-68.38	1052.2	86.021	27.577	1002.6	1177.3	-27.758	971	51.922	3.5235	1109.5	1606.6	27.485	1106.4	1062.8	-269.13
551	2.755	1253.6	1672.3	-108.61	1248.9	1680.1	-9.7366	1258.4	1418.4	-37.958	1330.8	1261.2	-33.261	1214.2	995.31	-208.39	1233	1006.4	161.15	1138.4	1503.7	127.58	1105.9	1344.6	252.98	1105.8	1198.1	309.34	1128	1047.1	335.51	1147.3	924.46	275.78	1134.6	933.62	356.38	1163.4	845.47	329.57	1144	1471.8	-224.25	1138.7	1294.6	-310.85	1167.6	1133.3	-361.23	1232.5	1009.4	-365.99	1317.1	912.63	-299.53	1283.3	649.31	194.01	1294.1	753.8	188.1	1342.6	414.42	120.54	1286.7	252	106.19	1290.6	337.1	170.19	1314.6	332.9	113.78	1144.5	761.25	-215.96	1144.4	593.5	-181.36	1122.9	508.74	-173.59	1142.9	506.05	-17.466	1177.8	380.91	-106.45	1128.9	293.92	-137.92	1180	37.633	-49.743	1285.2	881.16	-359.04	1359.9	835.86	-329.49	1135.5	219.41	-64.991	1309.1	539.6	33.387	1160.4	301.03	-84.462	1221.1	128.86	46.951	1142.5	678.75	-198.64	1200.2	681.57	-184.15	1366.9	57.216	129.1	1049.3	1124.6	218.08	1331.3	51.416	89.355	1296.8	542.35	187.93	1243.6	725.29	201.15	1201.7	801.52	205.59	1106.3	1588.7	-122.1	1119.4	107.32	75.035	1177.7	124.56	127.86	1231.8	26.531	-90.526	997.74	1380.6	69.945	1285.4	46.15	168.31	1109.7	25.089	-124.65	969.71	1036.3	17.369	1020.9	77.011	-56.623	1064.6	1493.1	-47.185	974.42	1048.5	-68.092	1052.5	86.134	27.684	1008.3	1177.1	-27.653	971.18	52.293	3.6672	1115.5	1606.2	27.609	1114.9	1062.6	-269.96
552	2.76	1259.7	1672	-108.39	1254.9	1679.7	-9.5104	1264.3	1418	-38.01	1336.6	1260.8	-33.549	1219.4	995.22	-208.45	1239.6	1006.1	160.04	1144.5	1503.3	127.62	1111.5	1344.2	252.9	1111	1197.6	309.1	1132.6	1046.5	335.11	1151.4	923.82	275.28	1138.8	932.94	355.87	1167.3	844.71	328.97	1149.9	1471.7	-224.22	1145.7	1294.6	-311.1	1175.9	1133.7	-361.7	1242	1010.4	-366.29	1327.3	914.46	-299.53	1290.7	649.88	193.26	1300.9	754.42	187.57	1354	415.78	119.85	1303.1	251.71	105.78	1304.1	337.08	169.49	1328.5	333.43	113.22	1148	760.95	-216.22	1147.4	593.19	-181.51	1125.4	508.49	-173.61	1145.7	505.71	-17.553	1179.7	380.31	-106.48	1130.3	293.6	-137.92	1180	37.599	-49.789	1295.9	882.75	-359.23	1371	838.15	-329.35	1136.5	219.06	-64.968	1317.1	540.15	32.316	1161.9	300.53	-84.472	1241.5	126.57	46.525	1146	678.54	-198.93	1203.6	680.92	-184.33	1389	59.029	129.29	1054.2	1124.4	217.86	1353.6	52.333	89.376	1304.9	542.68	186.84	1250.6	725.6	200.73	1208.2	801.59	205.47	1112.3	1588.5	-122	1140.3	102.13	74.184	1197.8	121.03	127.3	1231.9	26.378	-90.603	1003.7	1380.4	69.924	1307.7	47.185	168.57	1109.7	25.087	-124.65	975.45	1036.2	17.673	1021.2	77.254	-56.521	1070.6	1492.9	-47.149	979.89	1048.5	-67.775	1052.8	86.261	27.786	1014.1	1176.9	-27.507	971.39	52.687	3.8195	1121.5	1605.8	27.734	1123.4	1062.4	-270.75
553	2.765	1265.8	1671.6	-108.18	1261	1679.3	-9.2894	1270.2	1417.6	-38.054	1342.4	1260.3	-33.83	1224.7	995.08	-208.5	1246.3	1005.6	158.95	1150.6	1502.9	127.67	1117.1	1343.8	252.83	1116.2	1197	308.88	1137.3	1045.8	334.72	1155.5	923.15	274.77	1143	932.23	355.38	1171.1	843.91	328.38	1155.8	1471.6	-224.18	1152.8	1294.6	-311.33	1184.3	1134	-362.13	1251.5	1011.4	-366.56	1337.4	916.24	-299.51	1298	650.33	192.54	1307.6	754.9	187.03	1365.2	417.12	119.16	1319.3	251.53	105.36	1317.4	337.1	168.79	1342.3	334	112.67	1151.6	760.62	-216.45	1150.4	592.85	-181.65	1128	508.23	-173.64	1148.6	505.35	-17.644	1181.6	379.69	-106.52	1131.7	293.26	-137.92	1180.1	37.558	-49.833	1306.6	884.31	-359.39	1382	840.41	-329.2	1137.6	218.7	-64.946	1324.9	540.54	31.24	1163.4	300.02	-84.487	1261.8	124.53	46.09	1149.4	678.27	-199.2	1207.1	680.25	-184.51	1410.9	61.099	129.47	1059.1	1124.1	217.65	1375.9	53.553	89.376	1312.9	542.88	185.75	1257.4	725.79	200.34	1214.7	801.56	205.37	1118.4	1588.2	-121.89	1161.3	97.198	73.334	1217.9	117.73	126.72	1232	26.225	-90.684	1009.6	1380.1	69.937	1329.9	48.523	168.8	1109.7	25.087	-124.64	981.2	1036	18.002	1021.5	77.512	-56.415	1076.6	1492.6	-47.093	985.37	1048.4	-67.426	1053.1	86.401	27.883	1019.8	1176.7	-27.321	971.61	53.103	3.98	1127.6	1605.4	27.86	1131.8	1062.2	-271.51
